<?xml version="1.0" encoding="utf-8"?>
<!-- Generator: Adobe Illustrator 26.3.1, SVG Export Plug-In . SVG Version: 6.00 Build 0)  -->
<svg version="1.1"
	 id="svg2" xmlns:svg="http://www.w3.org/2000/svg" xmlns:rdf="http://www.w3.org/1999/02/22-rdf-syntax-ns#" xmlns:cc="http://creativecommons.org/ns#" xmlns:dc="http://purl.org/dc/elements/1.1/"
	 xmlns="http://www.w3.org/2000/svg" xmlns:xlink="http://www.w3.org/1999/xlink" x="0px" y="0px" width="156.94px" height="28px"
	 viewBox="0 0 156.94 28" style="enable-background:new 0 0 156.94 28;" xml:space="preserve">
<style type="text/css">
	.st0{fill:#D20000;}
</style>
<g>
	<path id="path3069_00000016758490285025152850000005559072649558941595_" class="st0" d="M17.58,27.57h13.39
		c0.96,0,1.79-0.68,1.98-1.62l0.41-2.04h-9.53v-0.08c0.71-0.62,1.4-1.24,2.05-1.88c0.66-0.64,1.4-1.4,2.23-2.29l6.9-7.56
		c0.25-0.28,0.42-0.62,0.49-0.99l0.43-2.33H23.48c-0.96,0-1.79,0.68-1.98,1.62l-0.41,2.04h8.76l-0.04,0.12
		c-0.75,0.67-1.46,1.32-2.13,1.95c-0.66,0.63-1.38,1.35-2.16,2.18l-7.05,7.71c-0.26,0.28-0.43,0.63-0.5,1L17.58,27.57z"/>
	<path id="path3071_00000007406324373661597260000004258301236840567195_" class="st0" d="M50.12,27.57c1.08,0,1.97-0.85,2.01-1.94
		c0.03-0.66,0.07-1.37,0.14-2.13c0.14-1.55,0.34-3.05,0.62-4.5l1.93-9.8c-0.73-0.24-1.6-0.44-2.6-0.6c-1-0.16-2.03-0.24-3.07-0.25
		c-2.92,0.04-5.36,0.71-7.32,2.01c-1.96,1.29-3.44,2.94-4.42,4.95c-0.99,2-1.48,4.1-1.48,6.28c0.02,1.92,0.53,3.46,1.52,4.62
		c0.99,1.16,2.34,1.75,4.04,1.78c1.21,0.02,2.4-0.32,3.56-1.03c1.16-0.71,2.21-1.92,3.15-3.64h0.12c-0.08,0.82-0.15,1.59-0.22,2.31
		c-0.07,0.72-0.11,1.37-0.13,1.93L50.12,27.57z M48.81,16.97c-0.49,2.4-1.26,4.23-2.31,5.5c-1.05,1.26-2.12,1.9-3.21,1.91
		c-0.97-0.03-1.67-0.38-2.09-1.06c-0.42-0.68-0.62-1.52-0.61-2.53c0.05-2.25,0.75-4.27,2.12-6.08c1.37-1.81,3.12-2.76,5.25-2.87
		c0.4,0,0.75,0.02,1.06,0.05c0.3,0.03,0.57,0.08,0.8,0.14L48.81,16.97z"/>
	<path id="path3073_00000150098042545198602070000017272662427795292570_" class="st0" d="M60.33,25.93l4.9-25.74h-2.81
		c-0.97,0-1.8,0.69-1.98,1.64l-4.93,25.75h2.84C59.32,27.57,60.15,26.88,60.33,25.93z"/>
	<path id="path3075_00000128480044529317418820000016715067356474557597_" class="st0" d="M69.9,25.93l4.9-25.74h-2.81
		c-0.97,0-1.8,0.69-1.98,1.64l-4.93,25.75h2.84C68.89,27.57,69.72,26.88,69.9,25.93z"/>
	<path id="path3077_00000065072852349313883270000000521775235127142572_" class="st0" d="M88.75,27.57c0.96,0,1.75-0.75,1.78-1.71
		c0.02-0.73,0.07-1.51,0.15-2.35c0.14-1.55,0.34-3.05,0.62-4.5l1.93-9.8c-0.73-0.24-1.6-0.44-2.6-0.6c-1-0.16-2.03-0.24-3.07-0.25
		c-2.92,0.04-5.36,0.71-7.32,2.01c-1.96,1.29-3.44,2.94-4.42,4.95c-0.99,2-1.48,4.1-1.48,6.28c0.02,1.92,0.53,3.46,1.52,4.62
		c0.99,1.16,2.34,1.75,4.04,1.78c1.21,0.02,2.4-0.32,3.56-1.03c1.16-0.71,2.21-1.92,3.15-3.64h0.12c-0.08,0.82-0.15,1.59-0.22,2.31
		c-0.07,0.72-0.11,1.37-0.13,1.93L88.75,27.57z M87.21,16.97c-0.49,2.4-1.26,4.23-2.31,5.5c-1.05,1.26-2.12,1.9-3.21,1.91
		c-0.97-0.03-1.67-0.38-2.09-1.06c-0.42-0.68-0.62-1.52-0.61-2.53c0.05-2.25,0.75-4.27,2.12-6.08c1.37-1.81,3.12-2.76,5.25-2.87
		c0.4,0,0.75,0.02,1.06,0.05c0.3,0.03,0.57,0.08,0.8,0.14L87.21,16.97z"/>
	<path id="path3079_00000070828776581315219580000003558912269227410068_" class="st0" d="M93.24,26.61
		c0.52,0.38,1.24,0.69,2.17,0.95s1.95,0.41,3.07,0.43c2.31-0.01,4.2-0.57,5.68-1.67c1.48-1.1,2.25-2.69,2.3-4.77
		c-0.03-1.19-0.43-2.19-1.18-3c-0.75-0.82-1.66-1.5-2.71-2.05c-0.79-0.4-1.4-0.8-1.81-1.21c-0.41-0.41-0.62-0.87-0.62-1.38
		c0.01-0.65,0.28-1.17,0.79-1.58c0.51-0.4,1.2-0.61,2.06-0.62c0.78,0.01,1.47,0.1,2.07,0.28c0.01,0,0.01,0,0.02,0.01
		c0.82,0.24,1.68-0.18,1.97-0.98l0.6-1.69c-0.43-0.26-1.03-0.48-1.8-0.67c-0.77-0.19-1.64-0.29-2.64-0.29
		c-2.26,0.03-4.08,0.61-5.46,1.73c-1.38,1.12-2.1,2.6-2.14,4.45c0.02,1.08,0.37,2.02,1.04,2.83c0.67,0.81,1.56,1.5,2.66,2.07
		c0.91,0.47,1.56,0.92,1.93,1.36c0.37,0.44,0.55,0.95,0.54,1.53c-0.01,0.63-0.26,1.17-0.77,1.61c-0.5,0.44-1.21,0.67-2.13,0.71
		c-0.87-0.02-1.71-0.16-2.53-0.43c-0.17-0.06-0.34-0.11-0.5-0.17c-0.84-0.31-1.76,0.11-2.06,0.95L93.24,26.61z"/>
	<g>
		<path id="path3081_00000080166029240494876120000005907844555977886890_" class="st0" d="M112.15,27.91
			c0.94-0.02,1.7-0.33,2.28-0.92c0.58-0.59,0.88-1.36,0.9-2.3c-0.01-0.86-0.26-1.54-0.76-2.05c-0.49-0.51-1.15-0.77-1.96-0.78
			c-0.93,0.02-1.69,0.35-2.26,0.97c-0.57,0.62-0.86,1.4-0.88,2.32c0.01,0.8,0.26,1.46,0.73,1.97c0.48,0.51,1.11,0.77,1.91,0.79
			H112.15z"/>
		<path id="path3083_00000029013108607397021810000014423534796298299837_" class="st0" d="M120.67,27.53
			c0.96,0,1.79-0.68,1.97-1.63l1.38-7.25c0.41-2,1.12-3.58,2.13-4.75c1.02-1.17,2.09-1.77,3.23-1.79c0.83,0.02,1.43,0.26,1.8,0.73
			c0.37,0.47,0.54,1.07,0.54,1.79c0,0.46-0.03,0.89-0.07,1.3c-0.05,0.41-0.1,0.79-0.16,1.15l-1.99,10.45h2.79
			c0.96,0,1.79-0.68,1.97-1.63l1.76-9.13c0.1-0.53,0.17-1.09,0.22-1.68c0.05-0.59,0.08-1.13,0.08-1.62
			c-0.03-1.7-0.49-2.96-1.37-3.79c-0.88-0.82-1.98-1.23-3.3-1.23c-1.3,0.01-2.47,0.3-3.51,0.88c-1.04,0.57-1.95,1.35-2.73,2.34
			h-0.08l2.18-11.33h-2.82c-0.96,0-1.79,0.69-1.97,1.63l-4.82,25.55H120.67z"/>
		<path id="path3085_00000140002796593488480680000011855797972515319174_" class="st0" d="M154.14,8.88
			c-0.95,0-1.77,0.68-1.95,1.61l-1.42,7.46c-0.41,1.96-1.11,3.49-2.1,4.61c-0.99,1.12-2.03,1.69-3.11,1.71
			c-0.87-0.01-1.49-0.26-1.85-0.75c-0.36-0.48-0.54-1.12-0.53-1.9c0-0.37,0.03-0.77,0.08-1.21c0.05-0.44,0.13-0.89,0.22-1.35
			l1.91-10.19h-2.8c-0.95,0-1.77,0.68-1.95,1.61l-1.68,8.84c-0.13,0.63-0.23,1.22-0.29,1.77c-0.06,0.55-0.09,1.07-0.09,1.57
			c0.03,1.9,0.5,3.25,1.41,4.08s2.06,1.23,3.45,1.21c1.18,0,2.32-0.31,3.44-0.93c1.11-0.62,2.12-1.53,3.03-2.74h0.08l-0.38,3.25
			h2.23c0.98,0,1.82-0.72,1.96-1.69c0.05-0.31,0.09-0.63,0.14-0.97c0.15-0.97,0.32-2.01,0.53-3.12l2.45-12.87H154.14z"/>
	</g>
	<path id="path3066_00000032640498844489743840000005818109596543215764_" class="st0" d="M0.02,26.06C0,26.11,0.01,26.17,0.06,26.2
		c0.6,0.46,1.47,0.86,2.63,1.2c1.2,0.36,2.61,0.56,4.2,0.59c2.97-0.03,5.37-0.78,7.2-2.27c1.83-1.49,2.78-3.55,2.83-6.18
		c-0.01-1.57-0.46-2.91-1.34-4.02c-0.88-1.11-2.12-2.07-3.71-2.89c-1.23-0.67-2.18-1.32-2.86-1.96c-0.68-0.63-1.03-1.38-1.04-2.25
		c0.01-0.9,0.4-1.68,1.17-2.35c0.77-0.66,1.87-1.01,3.31-1.05c1.07,0,2.01,0.13,2.83,0.39c0.01,0,0.02,0.01,0.02,0.01
		c1.07,0.34,2.22-0.19,2.63-1.24l0.65-1.65c0.02-0.06,0-0.12-0.05-0.15c-0.5-0.29-1.19-0.56-2.1-0.82c-0.96-0.27-2.16-0.42-3.6-0.44
		c-2.69,0.03-4.94,0.75-6.75,2.18c-1.81,1.43-2.75,3.4-2.82,5.92c0.03,1.53,0.54,2.85,1.51,3.94c0.98,1.1,2.23,2.05,3.77,2.84
		c1.27,0.66,2.2,1.32,2.79,1.97c0.59,0.65,0.88,1.4,0.88,2.23c-0.04,1.26-0.53,2.21-1.47,2.87C9.8,23.77,8.69,24.1,7.39,24.1
		c-1.15-0.01-2.23-0.16-3.24-0.47c-0.3-0.09-0.59-0.19-0.87-0.3c-1.02-0.39-2.17,0.09-2.59,1.1L0.02,26.06z"/>
</g>
</svg>
